<svg width="256" height="256" viewBox="0 0 256 256" fill="none" xmlns="http://www.w3.org/2000/svg" role="img" aria-labelledby="title desc">
  <title id="title">Token Guard icon</title>
  <desc id="desc">A shield with a token and lock motif.</desc>
  <defs>
    <linearGradient id="bg" x1="32" y1="24" x2="224" y2="232" gradientUnits="userSpaceOnUse">
      <stop offset="0" stop-color="#0F172A"/>
      <stop offset="1" stop-color="#111827"/>
    </linearGradient>
    <linearGradient id="accent" x1="64" y1="56" x2="192" y2="200" gradientUnits="userSpaceOnUse">
      <stop offset="0" stop-color="#22C55E"/>
      <stop offset="1" stop-color="#14B8A6"/>
    </linearGradient>
    <linearGradient id="metal" x1="96" y1="96" x2="160" y2="176" gradientUnits="userSpaceOnUse">
      <stop offset="0" stop-color="#F8FAFC"/>
      <stop offset="1" stop-color="#CBD5E1"/>
    </linearGradient>
  </defs>
  <rect x="20" y="20" width="216" height="216" rx="48" fill="url(#bg)"/>
  <path d="M128 44L194 70V120C194 163.5 168.1 198.6 128 216C87.9 198.6 62 163.5 62 120V70L128 44Z" fill="#0B1220" stroke="url(#accent)" stroke-width="8" stroke-linejoin="round"/>
  <path d="M128 64L176 82V118C176 152.2 156.8 179.8 128 193C99.2 179.8 80 152.2 80 118V82L128 64Z" fill="#111827" stroke="url(#accent)" stroke-width="4" stroke-linejoin="round"/>
  <circle cx="128" cy="126" r="32" fill="url(#accent)" opacity="0.95"/>
  <path d="M116 126C116 119.4 121.4 114 128 114C134.6 114 140 119.4 140 126V132H144V150H112V132H116V126Z" fill="url(#metal)"/>
  <rect x="121" y="126" width="14" height="18" rx="7" fill="#0F172A"/>
  <path d="M104 92C112.5 84.8 120.5 81.5 128 81.5C135.5 81.5 143.5 84.8 152 92" stroke="url(#accent)" stroke-width="6" stroke-linecap="round"/>
  <circle cx="128" cy="126" r="56" stroke="url(#accent)" stroke-opacity="0.18" stroke-width="2"/>
</svg>
